<?xml version="1.0" encoding="UTF-8"?>
<svg id="Layer_3" xmlns="http://www.w3.org/2000/svg" version="1.1" viewBox="0 0 2431.75 167.47">
  <!-- Generator: Adobe Illustrator 29.3.1, SVG Export Plug-In . SVG Version: 2.1.0 Build 151)  -->
  <defs>
    <style>
      .st0 {
        fill: #d7282f;
      }

      .st1 {
        fill: #003da6;
      }

      .st2 {
        fill: #003da6;
      }

      .st3 {
        fill: #006e43;
      }

      .st4 {
        font-family: AppleMyungjo, AppleMyungjo;
        font-size: 135px;
      }

      .st5 {
        fill: #fff;
      }

      .st6 {
        fill: #ffcd00;
      }
    </style>
  </defs>
  <text class="st4" transform="translate(451.09 1015.08)"><tspan x="0" y="0">G</tspan></text>
  <text class="st4" transform="translate(654.89 1015.08)"><tspan x="0" y="0">I</tspan></text>
  <text class="st4" transform="translate(845.48 1015.08)"><tspan x="0" y="0">F</tspan></text>
  <text class="st4" transform="translate(1038.31 1015.08)"><tspan x="0" y="0">T</tspan></text>
  <text class="st4" transform="translate(1297.65 1015.08)"><tspan x="0" y="0">S</tspan></text>
  <text class="st4" transform="translate(1496.05 1015.08)"><tspan x="0" y="0">H</tspan></text>
  <text class="st4" transform="translate(1687.7 1015.08)"><tspan x="0" y="0">O</tspan></text>
  <text class="st4" transform="translate(1880.53 1015.08)"><tspan x="0" y="0">P</tspan></text>
  <g>
    <g>
      <rect class="st5" x="3.49" y="3.49" width="160.5" height="160.5"/>
      <rect class="st5" x="198.52" y="4.77" width="157.92" height="157.92"/>
      <rect class="st5" x="391.71" y="5.05" width="155.79" height="155.79"/>
      <rect class="st5" x="586.75" y="5.05" width="155.79" height="155.79"/>
      <path class="st2" d="M146.47,21v125.47H21V21h125.47M167.47,0H0v167.47h167.47V0h0Z"/>
      <path class="st3" d="M340.21,21v125.47h-125.47V21h125.47M361.21,0h-167.47v167.47h167.47V0h0Z"/>
      <path class="st6" d="M533.14,21v125.47h-125.47V21h125.47M554.14,0h-167.47v167.47h167.47V0h0Z"/>
      <path class="st0" d="M726.3,21v125.47h-125.47V21h125.47M747.3,0h-167.47v167.47h167.47V0h0Z"/>
      <path class="st3" d="M302.12,80.97c4.28-1.88,7.78-4.11,10.44-6.66,4.36-4.17,6.57-9.31,6.57-15.27,0-7.62-3.22-13.8-9.57-18.36-6.09-4.38-14.46-6.6-24.86-6.6h-55.18v9.85h11.51c4.32,0,4.32,1.8,4.32,2.99v75.42c0,.06,0,.22-.57.49-.67.32-1.96.71-4.3.71h-10.96v9.85h53.54c12.37,0,22.42-2.55,29.86-7.58,7.75-5.24,11.68-12.03,11.68-20.19,0-11.69-7.55-19.96-22.47-24.65ZM298.03,59.17c0,12.4-5.32,18.17-16.74,18.17h-16.61v-31.19c0-1.83.46-1.88.77-1.92,1.92-.2,5-.3,9.15-.3,11.27,0,16.21,1.54,18.38,2.84,3.4,2,5.05,6.06,5.05,12.39ZM269.55,123.54c-4.87,0-4.87-1.69-4.87-2.6v-33.74h18.25c6.42,0,11.45,1.63,14.96,4.83,3.49,3.19,5.19,7.56,5.19,13.34,0,12.4-6.75,18.17-21.25,18.17h-12.28Z"/>
      <path class="st6" d="M510.95,95.3l-.38,2.04c-3.4,18.21-14.36,27.06-33.52,27.06-10.5,0-18.32-3.17-23.93-9.7-5.62-6.54-8.47-16.41-8.47-29.31,0-29.23,9.89-43.43,30.22-43.43,15.68,0,26.56,10.23,33.29,31.29l.56,1.74h9.57l-2.11-42.71h-8.76l-4.87,8.17c-4.52-2.64-8.86-4.66-12.92-6.02-4.79-1.6-9.96-2.41-15.37-2.41-15.09,0-28.02,5.2-38.43,15.46-10.43,10.27-15.71,23.07-15.71,38.04,0,14.19,5.37,26.08,15.97,35.35,10.5,9.18,23.71,13.84,39.25,13.84,12.51,0,22.95-3.22,31.01-9.58,8.14-6.41,13.09-15.49,14.73-26.98l.41-2.85h-10.54Z"/>
      <path class="st0" d="M698.94,44.64c-4.64-4.03-9.34-6.79-13.98-8.2-4.53-1.38-10.1-2.08-16.55-2.08h-55.05v9.83h12.95c3.28,0,3.28,1.02,3.28,1.7v75.71c0,.68,0,1.95-4.1,1.95h-12.13v9.83h49.55c1.43,0,3.29-.04,5.53-.13,2.34-.09,4.19-.22,5.63-.4,12.88-1.51,23.08-6.64,30.31-15.25,7.19-8.57,10.83-19.98,10.83-33.92,0-16.45-5.47-29.59-16.27-39.04ZM649.18,121.47V46.28c0-.83,0-2.08,3.69-2.08h11.55c10.07,0,17.23,3.12,21.92,9.53,4.79,6.57,7.22,17.17,7.22,31.48,0,13.44-2.46,23.34-7.3,29.43-4.7,5.92-12.56,8.92-23.35,8.92h-8.67c-5.07,0-5.07-1.51-5.07-2.08Z"/>
      <path class="st1" d="M54.18,119.9c-.53,1.67,1.02,3.61,3.88,3.64,2.69.03,1.69.03,5.42,0h1.54v9.85H29.05v-9.85h1.13c4.84,0,6.47.91,9.87-6.99l35.7-82.47h12.68l37.68,84.06c1.42,3.6,2.73,5.39,6.2,5.39h4.26v9.85h-42.79v-9.85h3.4c7.37,0,7.84-1.15,7.84-3.87,0-.79-.4-1.36-1.01-2.58l-7.34-15.93h-35.05s-3.97,9.59-4.82,11.97-2.1,5.09-2.63,6.76ZM92.9,91.48l-13.73-34.74-14.24,34.74h27.97Z"/>
    </g>
    <rect class="st5" x="845.71" y="3.49" width="160.5" height="160.5"/>
    <rect class="st5" x="1040.74" y="4.77" width="157.92" height="157.92"/>
    <rect class="st5" x="1233.94" y="5.05" width="155.79" height="155.79"/>
    <rect class="st5" x="1428.97" y="5.05" width="155.79" height="155.79"/>
    <path class="st1" d="M988.69,21v125.47h-125.47V21h125.47M1009.69,0h-167.47v167.47h167.47V0h0Z"/>
    <path class="st3" d="M1182.44,21v125.47h-125.47V21h125.47M1203.44,0h-167.47v167.47h167.47V0h0Z"/>
    <path class="st6" d="M1375.36,21v125.47h-125.47V21h125.47M1396.36,0h-167.47v167.47h167.47V0h0Z"/>
    <path class="st0" d="M1568.52,21v125.47h-125.47V21h125.47M1589.52,0h-167.47v167.47h167.47V0h0Z"/>
    <rect class="st5" x="1687.93" y="3.49" width="160.5" height="160.5"/>
    <rect class="st5" x="1882.96" y="4.77" width="157.92" height="157.92"/>
    <rect class="st5" x="2076.16" y="5.05" width="155.79" height="155.79"/>
    <rect class="st5" x="2271.19" y="5.05" width="155.79" height="155.79"/>
    <path class="st1" d="M1830.92,21v125.47h-125.47V21h125.47M1851.92,0h-167.47v167.47h167.47V0h0Z"/>
    <path class="st3" d="M2024.66,21v125.47h-125.47V21h125.47M2045.66,0h-167.47v167.47h167.47V0h0Z"/>
    <path class="st6" d="M2217.58,21v125.47h-125.47V21h125.47M2238.58,0h-167.47v167.47h167.47V0h0Z"/>
    <path class="st0" d="M2410.75,21v125.47h-125.47V21h125.47M2431.75,0h-167.47v167.47h167.47V0h0Z"/>
    <path class="st1" d="M931.52,85.35v10.5h11.65c3.55,0,5.35.67,5.35,2v7.75c0,6.18-2.08,9.06-6.37,12.93-4.36,3.94-10.01,5.85-17.29,5.85-19.54,0-29.03-11.82-29.03-40.26,0-6.68.45-12.48,1.34-17.23.86-4.63,2.21-7.54,3.99-10.61,5.38-9.21,13.28-13.68,24.14-13.68,7.53,0,13.71,2.44,18.89,7.46,5.31,5.14,9.84,12.18,13.47,22.9l.58,1.7h8.98l-2.96-43.08h-8.66l-5.32,8.51c-4-2.62-7.42-4.47-10.39-5.63-4.83-1.91-10.12-2.88-15.74-2.88-13.49,0-25.46,4.91-35.59,14.59-10.63,10.22-16.03,22.99-16.03,37.95s5.07,27.58,15.08,37.24c9.98,9.64,22.71,14.53,37.85,14.53,6.89,0,12.99-1.45,18.14-4.3,3.91-2.17,7.53-5.21,10.79-9.07l4.59,13.37h8.93v-37.65c0-.71,0-2.39,5.2-2.39h8.6v-10.5h-50.19Z"/>
    <path class="st0" d="M1452.64,71.09l3.13-37.78h100.58l2.58,37.78h-6.45c-4.05-22.39-9.99-28.58-27.8-28.58-3.2,0-5.5.43-6.91,1.29-1.41.86-2.12,2.42-2.12,4.67v70.03c0,3.16,2.7,4.74,8.11,4.74h8.82v10.15h-53.4v-10.15h10.66c4.18,0,6.27-1.4,6.27-4.2V47.79c0-3.43-2.95-5.15-8.85-5.15-17.45,0-23.38,6.15-27.8,28.45h-6.82Z"/>
    <path class="st3" d="M1088.22,44.42v-10.11h62.12v10.11h-10.56c-4.86,0-7.86.43-9.02,1.28-1.15.85-1.73,2.67-1.73,5.44v65.22c0,2.15.24,3.67.73,4.57.97,1.7,3.89,2.55,8.74,2.55h11.84v10.11h-62.12v-10.11h11.84c4.13,0,6.8-.45,8.01-1.34,1.21-.89,1.82-2.82,1.82-5.78V51.13c0-2.77-.55-4.52-1.64-5.24-1.46-.98-4.62-1.48-9.47-1.48h-10.57Z"/>
    <path class="st6" d="M1359.21,33.2h-95.66v8.02h12.76c5.72,0,5.72,2.23,5.72,3.07v77.19c0,1.78-.62,3.59-5.25,3.59h-13.22v8.02h57.85v-8.02h-13.38c-3.29,0-4.77-.56-5.43-1.03-.81-.58-1.21-1.67-1.21-3.35v-35.44h8.18c11.2,0,16.65,6.1,16.65,18.66v1.52h8.58v-46.81h-8.58v1.52c0,5.67-1.43,10.01-4.26,12.89-2.82,2.87-6.99,4.33-12.39,4.33h-8.18v-33.47c0-1.29.27-2.67,3.56-2.67h18.17c9.49,0,16.38,2.1,20.48,6.23,3.67,3.7,6.64,10.81,8.83,21.13l.26,1.21h8.21l-1.68-36.59Z"/>
    <path class="st1" d="M1796.39,81.2c-5.57-2.75-14.62-5.24-27.65-7.62-15.47-2.81-21.06-5.04-23.04-6.42-3.51-2.39-5.22-3.54-5.22-7.64s1.91-7.44,5.83-10.37c4.03-3.01,9.36-4.54,15.83-4.54,16.88,0,27.94,7.28,33.81,26.37l.41,1.32h8.38l-.52-37.4h-8.25l-6.59,7.48c-4-2.61-8.02-4.63-11.99-6.01-4.46-1.55-9.53-2.34-15.08-2.34-10.2,0-18.77,2.77-25.47,8.25-6.82,5.56-10.28,12.66-10.28,21.08,0,6.87,2.06,12.38,6.13,16.36,3.45,3.4,9.18,6.23,17.5,8.66,5.41,1.59,14.69,3.57,27.58,5.89,6.06,1.1,10.78,2.96,14.03,5.53,3.06,2.43,4.55,3.3,4.55,6.79,0,4.55-2.13,8.35-6.52,11.61-4.5,3.34-10.37,5.04-17.46,5.04-9.33,0-17.64-2.79-24.69-8.3-7.04-5.49-11.6-10.9-13.56-20.03l-.32-1.48h-8.95v39.39h8.21l8.13-8.04c8.86,5.75,19.13,8.66,30.57,8.66s21.02-2.89,28.24-8.6c7.35-5.81,11.08-13.24,11.08-22.09,0-9.51-4.93-16.76-14.66-21.55Z"/>
    <path class="st3" d="M1910.22,44.21v-10.11h46.62v10.11h-6.24c-3.96,0-6.41.52-7.37,1.54-.96,1.03-1.44,3.29-1.44,6.78v24.62h40.75v-24.62c0-3.58-.48-5.86-1.44-6.85-.96-.98-3.54-1.48-7.73-1.48h-5.53v-10.11h46.44v10.11h-6.42c-3.72,0-6.05.65-7.01,1.95-.96,1.3-1.44,3.69-1.44,7.19v61.46c0,3.14.24,5.06.72,5.78,1.2,1.79,4.13,2.69,8.81,2.69h5.35v10.11h-46.44v-10.11h5.53c3.35,0,5.72-.47,7.1-1.41,1.38-.94,2.07-3.43,2.07-7.46v-28.65h-40.75v29.06c0,2.69.24,4.52.72,5.51.96,1.97,3.12,2.96,6.47,2.96h7.86v10.11h-46.62v-10.11h6.78c2.63,0,4.58-.54,5.84-1.61s1.89-3.49,1.89-7.25v-61.86c0-3.49-.48-5.75-1.44-6.78-.96-1.03-3.48-1.54-7.55-1.54h-5.53Z"/>
    <path class="st6" d="M2193.09,45.27c-10.34-9.78-23.37-14.73-38.72-14.73-14.27,0-26.73,4.98-37.02,14.81-10.32,9.86-15.56,22.37-15.56,37.19s5.21,27.86,15.48,37.76c10.24,9.87,22.97,14.88,37.84,14.88s27.63-4.96,37.97-14.73c10.38-9.81,15.64-22.44,15.64-37.52s-5.26-27.83-15.64-37.65ZM2177.12,114.95c-5.15,6.88-12.35,10.22-22.01,10.22-19.93,0-29.61-13.99-29.61-42.76,0-5.76.44-11.07,1.29-15.8.84-4.61,2.1-8.42,3.76-11.39,2.54-4.72,6-8.39,10.28-10.89,4.3-2.51,9.25-3.79,14.72-3.79,19.83,0,29.46,14.03,29.46,42.89,0,13.91-2.66,24.51-7.9,31.51Z"/>
    <path class="st0" d="M2297.49,44.42v-10.11h60.17c13.22,0,23.53,2.44,30.91,7.32,7.38,4.88,11.08,11.49,11.08,19.81s-3.88,14.98-11.65,19.95c-7.77,4.97-18.43,7.46-31.99,7.46h-21.82v28.85c0,3.85,2.65,5.78,7.93,5.78h13.89v10.11h-58.52v-10.11h9.06c4.74,0,7.11-1.43,7.11-4.3V50.19c0-3.85-2.65-5.78-7.94-5.78h-8.24ZM2334.19,50.46v27.27h16.7c10.47,0,16.11-1.13,21.16-4.3,4.94-3.11,7.14-5.08,7.14-11.55,0-8.78-3.11-12.14-9.11-14.26-4.65-1.64-9.48-3.21-21.16-3.21-5.62,0-9.2.22-10.75.67-2.64.81-3.97,2.6-3.97,5.37Z"/>
  </g>
</svg>